<svg width="24" height="25" viewBox="0 0 24 25" fill="none" xmlns="http://www.w3.org/2000/svg">
<circle cx="12" cy="12.5" r="10" fill="black"/>
<path d="M15.5148 13.7294L16.703 14.9201C17.099 15.317 17.099 16.1107 16.7029 16.5077C15.9367 17.2756 14.9304 17.5 14.5246 17.5C12.9405 17.5 11.9507 17.3013 9.57445 14.9199C7.19824 12.5385 7 11.1496 7 9.95887C7 9.16512 7.19812 8.56968 7.99019 7.77588C8.38628 7.37893 9.17107 7.42457 9.56717 7.82148L10.7624 8.96658C11.1585 9.36345 11.1584 10.1573 10.7624 10.5542L9.97032 11.348C10.1683 12.7371 11.718 14.3211 13.1386 14.5232L13.9307 13.7294C14.3267 13.3325 15.1188 13.3325 15.5148 13.7294Z" fill="white"/>
</svg>
