<svg width="24" height="25" viewBox="0 0 24 25" fill="none" xmlns="http://www.w3.org/2000/svg">
<path d="M14 4.5C14 4.58781 13.9943 4.67429 13.9834 4.75911C17.1435 5.66006 18 8.69061 18 10.3333V16.5H20C20.5523 16.5 21 16.9477 21 17.5C21 18.0523 20.5523 18.5 20 18.5H4C3.44772 18.5 3 18.0523 3 17.5C3 16.9477 3.44772 16.5 4 16.5H6V10.3333C6 8.69061 6.85648 5.66006 10.0166 4.75911C10.0057 4.67429 10 4.58781 10 4.5C10 3.39543 10.8954 2.5 12 2.5C13.1046 2.5 14 3.39543 14 4.5Z" fill="black"/>
<path d="M14 19.5C14 20.6046 13.1046 21.5 12 21.5C10.8954 21.5 10 20.6046 10 19.5H14Z" fill="black"/>
</svg>
