<svg width="24" height="25" viewBox="0 0 24 25" fill="none" xmlns="http://www.w3.org/2000/svg">
<path fill-rule="evenodd" clip-rule="evenodd" d="M12.614 3.71065C12.2529 3.42978 11.7472 3.42978 11.3861 3.71065L2.38611 10.7106C1.95016 11.0497 1.87162 11.678 2.21069 12.1139C2.54976 12.5499 3.17804 12.6284 3.61399 12.2894L4 11.9891V20.5C4 21.6046 4.89543 22.5 6 22.5H18C19.1046 22.5 20 21.6046 20 20.5V11.989L20.3861 12.2894C20.8221 12.6284 21.4503 12.5499 21.7894 12.1139C22.1285 11.678 22.0499 11.0497 21.614 10.7106L12.614 3.71065Z" fill="black"/>
<path d="M10 16.5C10 15.9477 10.4477 15.5 11 15.5H13C13.5523 15.5 14 15.9477 14 16.5V20.5H10V16.5Z" fill="white"/>
</svg>
